<svg width="122" height="28" viewBox="0 0 122 28" fill="none" xmlns="http://www.w3.org/2000/svg">
<path d="M29 6.16016H35.312C36.416 6.16016 37.424 6.33616 38.336 6.68816C39.248 7.04016 40.024 7.56816 40.664 8.27216C41.304 8.96016 41.8 9.83216 42.152 10.8882C42.504 11.9282 42.68 13.1442 42.68 14.5362C42.68 15.9282 42.504 17.1522 42.152 18.2082C41.8 19.2482 41.304 20.1202 40.664 20.8242C40.024 21.5122 39.248 22.0322 38.336 22.3842C37.424 22.7362 36.416 22.9122 35.312 22.9122H29V6.16016ZM35.312 19.6722C36.4 19.6722 37.256 19.3682 37.88 18.7602C38.504 18.1522 38.816 17.1762 38.816 15.8322V13.2402C38.816 11.8962 38.504 10.9202 37.88 10.3122C37.256 9.70416 36.4 9.40016 35.312 9.40016H32.648V19.6722H35.312Z" fill="white"/>
<path d="M43.808 22.9121V10.3121H47.36V13.0481H47.48C47.544 12.6961 47.656 12.3601 47.816 12.0401C47.976 11.7041 48.184 11.4081 48.44 11.1521C48.712 10.8961 49.032 10.6961 49.4 10.5521C49.768 10.3921 50.2 10.3121 50.696 10.3121H51.32V13.6241H50.432C49.392 13.6241 48.616 13.7601 48.104 14.0321C47.608 14.3041 47.36 14.8081 47.36 15.5441V22.9121H43.808Z" fill="white"/>
<path d="M62.152 22.9121C61.512 22.9121 61.128 22.6001 60.696 22.2001C60.28 21.8001 60.016 21.2641 59.904 20.5921H59.76C59.568 21.4081 59.144 22.0321 58.488 22.4641C57.832 22.8801 57.024 23.0881 56.064 23.0881C54.8 23.0881 53.832 22.7521 53.16 22.0801C52.488 21.4081 52.152 20.5201 52.152 19.4161C52.152 18.0881 52.632 17.1041 53.592 16.4641C54.568 15.8081 55.888 15.4801 57.552 15.4801H59.544V14.6881C59.544 14.0801 59.384 13.6001 59.064 13.2481C58.744 12.8801 58.208 12.6961 57.456 12.6961C56.752 12.6961 56.192 12.8481 55.776 13.1521C55.36 13.4561 55.016 13.8001 54.744 14.1841L52.632 12.3121C53.144 11.5601 53.784 10.9761 54.552 10.5601C55.336 10.1281 56.392 9.91211 57.72 9.91211C59.512 9.91211 60.856 10.3041 61.752 11.0881C62.648 11.8721 63.096 13.0161 63.096 14.5201V20.0401H64.272V22.9121H62.152ZM57.384 20.6161C57.976 20.6161 58.48 20.4881 58.896 20.2321C59.328 19.9761 59.544 19.5601 59.544 18.9841V17.4961H57.816C56.424 17.4961 55.728 17.9681 55.728 18.9121V19.2721C55.728 19.7361 55.872 20.0801 56.16 20.3041C56.448 20.5121 56.856 20.6161 57.384 20.6161Z" fill="white"/>
<path d="M65.928 12.8321H64.152V10.0721H65.928V8.58411C65.928 7.36811 66.248 6.45611 66.888 5.84811C67.528 5.22411 68.464 4.91211 69.696 4.91211H72V7.67211H69.48V10.0721H72V12.9121H69.48V22.9121H65.928V12.8321Z" fill="white"/>
<path d="M77.672 22.9201C76.44 22.9201 75.504 22.6081 74.864 21.9841C74.24 21.3601 73.928 20.4481 73.928 19.2481V12.9121H71.652L71.6794 10.0784C71.6794 10.0784 72.3712 10.0784 72.8512 10.0784C73.3312 10.0784 73.5114 10.0784 74.024 9.98411C74.288 9.93554 74.288 9.40811 74.288 8.97611V6.91211H77.48V10.3201H79.976V13.0801H77.48V20.1601H79.784V22.9201H77.672Z" fill="white"/>
<path d="M81.152 22.9121V5.91211H84.8V19.4241H91.184V22.9121H81.152Z" fill="white"/>
<path d="M102.152 22.9121C101.512 22.9121 101.128 22.6001 100.696 22.2001C100.28 21.8001 100.016 21.2641 99.904 20.5921H99.76C99.568 21.4081 99.144 22.0321 98.488 22.4641C97.832 22.8801 97.024 23.0881 96.064 23.0881C94.8 23.0881 93.832 22.7521 93.16 22.0801C92.488 21.4081 92.152 20.5201 92.152 19.4161C92.152 18.0881 92.632 17.1041 93.592 16.4641C94.568 15.8081 95.888 15.4801 97.552 15.4801H99.544V14.6881C99.544 14.0801 99.384 13.6001 99.064 13.2481C98.744 12.8801 98.208 12.6961 97.456 12.6961C96.752 12.6961 96.192 12.8481 95.776 13.1521C95.36 13.4561 95.016 13.8001 94.744 14.1841L92.632 12.3121C93.144 11.5601 93.784 10.9761 94.552 10.5601C95.336 10.1281 96.392 9.91211 97.72 9.91211C99.512 9.91211 100.856 10.3041 101.752 11.0881C102.648 11.8721 103.096 13.0161 103.096 14.5201V20.0401H104.272V22.9121H102.152ZM97.384 20.6161C97.976 20.6161 98.48 20.4881 98.896 20.2321C99.328 19.9761 99.544 19.5601 99.544 18.9841V17.4961H97.816C96.424 17.4961 95.728 17.9681 95.728 18.9121V19.2721C95.728 19.7361 95.872 20.0801 96.16 20.3041C96.448 20.5121 96.856 20.6161 97.384 20.6161Z" fill="white"/>
<path d="M105.152 4.91211H108.704V12.1841H108.824C109 11.4801 109.4 10.9041 110.024 10.4561C110.664 10.0081 111.392 9.78411 112.208 9.78411C113.808 9.78411 115.016 10.3441 115.832 11.4641C116.648 12.5841 117.056 14.2161 117.056 16.3601C117.056 18.5041 116.648 20.1441 115.832 21.2801C115.016 22.4001 113.808 22.9601 112.208 22.9601C111.792 22.9601 111.4 22.8961 111.032 22.7681C110.664 22.6561 110.328 22.4961 110.024 22.2881C109.736 22.0641 109.488 21.8081 109.28 21.5201C109.072 21.2161 108.92 20.8961 108.824 20.5601H108.704V22.9121H105.152V4.91211ZM111.032 20.0801C111.704 20.0801 112.256 19.8481 112.688 19.3841C113.136 18.9041 113.36 18.2641 113.36 17.4641V15.2801C113.36 14.4801 113.136 13.8481 112.688 13.3841C112.256 12.9041 111.704 12.6641 111.032 12.6641C110.36 12.6641 109.8 12.8321 109.352 13.1681C108.92 13.4881 108.704 13.9361 108.704 14.5121V18.2321C108.704 18.8081 108.92 19.2641 109.352 19.6001C109.8 19.9201 110.36 20.0801 111.032 20.0801Z" fill="white"/>
<path d="M120.013 22.7405C119.427 22.7405 118.941 22.5613 118.555 22.2036C118.185 21.83 118 21.3708 118 20.8261C118 20.2814 118.185 19.8301 118.555 19.4724C118.941 19.0988 119.427 18.9121 120.013 18.9121C120.583 18.9121 121.054 19.0988 121.424 19.4724C121.794 19.8301 121.979 20.2814 121.979 20.8261C121.979 21.3708 121.794 21.83 121.424 22.2036C121.054 22.5613 120.583 22.7405 120.013 22.7405Z" fill="#760EC8"/>
<path d="M11.8879 15.2038V1.91211L21.5546 6.74544L11.8879 11.5788" stroke="white" stroke-width="2" stroke-linecap="round" stroke-linejoin="round"/>
<path d="M22.2192 11.8567C22.8622 13.8385 22.9223 15.9634 22.3925 17.9784C21.8626 19.9934 20.7651 21.8139 19.2304 23.2231C17.6957 24.6323 15.7885 25.571 13.7357 25.9275C11.6829 26.284 9.5709 26.0433 7.65095 25.234C5.73101 24.4247 4.08395 23.0809 2.90574 21.3625C1.72754 19.6441 1.06777 17.6234 1.00495 15.5408C0.942121 13.4582 1.47888 11.4014 2.55136 9.61509C3.62384 7.82877 5.1869 6.38815 7.05457 5.4646" stroke="#760EC8" stroke-width="2" stroke-linecap="round" stroke-linejoin="round"/>
<path d="M7.0546 11.5789C6.44911 12.3848 6.05492 13.3295 5.90794 14.3268C5.76097 15.3241 5.86588 16.3424 6.21312 17.2888C6.56036 18.2352 7.13889 19.0796 7.896 19.7452C8.6531 20.4108 9.56473 20.8764 10.5478 21.0995C11.5309 21.3226 12.5542 21.2962 13.5244 21.0227C14.4947 20.7491 15.3811 20.2372 16.1029 19.5334C16.8246 18.8296 17.3588 17.9565 17.6568 16.9934C17.9547 16.0304 18.007 15.0081 17.8088 14.0197" stroke="#760EC8" stroke-width="2" stroke-linecap="round" stroke-linejoin="round"/>
</svg>
